<svg xmlns="http://www.w3.org/2000/svg" viewBox="0 0 358.88 154.3"><g id="Calque_2" data-name="Calque 2"><g id="Calque_1-2" data-name="Calque 1"><path d="M75.33,123.69c9.42,4.93,21.61,9,41.09,9,15.83,0,28-6.85,34.88-11.13,3,1.93,3.43,5.35,3.43,7.92,0,7.71-22.26,24.83-44.3,24.83-20.33,0-34-8.56-46.87-17.12-8.56,9.2-19.48,14.33-32.32,14.33C13.48,151.51,0,141.46,0,132.9c0-12.42,18.19-23.12,33.6-23.12,8.56,0,15,1.29,20.76,3.86A245.63,245.63,0,0,0,68.05,81.75C46.65,74.69,39,61.42,39,48.79c0-19.26,19-31.46,31.24-31.46C73,17.33,77,22,77,24c-4.92,1.92-20.11,7.7-20.11,23.75,0,7.92,2.14,16.91,15.83,22C86.89,36,104.43,1.93,140.39,1.93c18.83,0,30.6,15.4,30.6,27.6,0,31-44.3,56.71-69.55,56.71A61.21,61.21,0,0,1,95,86C88.6,99.3,82.82,112.57,75.33,123.69Zm-42.59.22c-7.92,0-15.83,2.35-15.83,7.92,0,4.28,5.35,6.63,9.63,6.63,7.7,0,14.12-4.07,19.47-11.56A33.54,33.54,0,0,0,32.74,123.91Zm72.12-50.08c24.61,0,51.15-31.67,51.15-46.44,0-7.27-3.85-11.77-12-11.77-18.83,0-30.6,27.82-43.87,58.21Z"/><path d="M331.06,119.41a17.77,17.77,0,0,0,3.85-.42c1.29,0,1.71,3.21,1.71,4.28,0,4.49-2.56,9.84-4.49,11.12a8.69,8.69,0,0,1-4.71,1.07c-8.34,0-22.47-4.92-30-21-27,29.11-29.53,36.81-39.38,36.81-7.7,0-17.33-21.4-16.69-43.23-9.63,17.76-31.46,44.73-40.45,44.73-9.63,0-16.26-16.69-16.26-27.61,0-26.11,37.88-89,37.88-98.65A5.45,5.45,0,0,0,217,20.76c-6.64,0-16.91,12-24.4,32.1-5.78-.86-12.84-7.06-12.84-12.2C179.76,29.53,199,0,224.06,0c16.69,0,28.25,11.34,28.25,20.54,0,6.42-19.91,43.88-31.89,72.55-7.71,18.41-9.2,31-6.21,31,7.28,0,37.24-48.15,61.85-119.41,3.21-1.29,12-1.93,17.55-1.93,6.21,0,7.7,1.93,7.7,4.92,0,2.36-35.74,63.13-35.74,100.8a41.81,41.81,0,0,0,2.14,14.12,137.73,137.73,0,0,0,25.47-22.25,65.78,65.78,0,0,1-1.28-12.84c0-30,19.26-83.89,52.21-83.89,8.14,0,14.77,7.7,14.77,16.69,0,21.61-21.4,52.22-49.86,82.39C312.87,116.63,320.57,119.41,331.06,119.41Zm8.35-90.52c0-2.57-1.72-4.71-3.64-4.71-6,0-31,27-28.89,61.85C327.85,60.35,339.41,38.09,339.41,28.89Z"/></g></g></svg>