<svg xmlns="http://www.w3.org/2000/svg" viewBox="0 0 1417.32 395.5"><defs><style>.cls-1{fill:none;stroke:#000;stroke-miterlimit:10;stroke-width:11px;}</style></defs><g id="Calque_2" data-name="Calque 2"><g id="Calque_1-2" data-name="Calque 1"><path d="M272.43,124.12c9.42,4.92,21.62,9,41.09,9,15.84,0,28-6.85,34.88-11.13,3,1.93,3.43,5.35,3.43,7.92,0,7.7-22.26,24.83-44.3,24.83-20.33,0-34-8.56-46.87-17.13-8.56,9.21-19.47,14.34-32.31,14.34-17.76,0-31.25-10.05-31.25-18.62,0-12.41,18.19-23.11,33.6-23.11,8.56,0,15,1.29,20.76,3.85a246.85,246.85,0,0,0,13.7-31.88c-21.4-7.06-29.11-20.33-29.11-33,0-19.26,19-31.46,31.25-31.46,2.78,0,6.84,4.71,6.84,6.64C269.22,26.32,254,32.1,254,48.15c0,7.92,2.14,16.91,15.83,22C284,36.38,301.54,2.35,337.49,2.35c18.83,0,30.6,15.41,30.6,27.61,0,31-44.3,56.71-69.55,56.71a61.4,61.4,0,0,1-6.42-.21C285.7,99.73,279.92,113,272.43,124.12Zm-42.58.22c-7.92,0-15.84,2.35-15.84,7.91,0,4.29,5.35,6.64,9.63,6.64,7.7,0,14.12-4.07,19.47-11.56A33.49,33.49,0,0,0,229.85,124.34ZM302,74.26c24.61,0,51.14-31.67,51.14-46.44,0-7.28-3.85-11.77-12-11.77-18.83,0-30.6,27.82-43.87,58.21Z"/><path d="M385.85,131.4c-4.71,7.7-14.76,20.76-25.25,20.76-6.21,0-15.84-9.2-15.84-20.12,0-18.83,13.7-38.09,23.54-67.41a68.06,68.06,0,0,1,14.34-1.28c4.5,0,9.2.21,9.2,4.7,0,2.79-26.32,47.94-26.1,59.07a4.67,4.67,0,0,0,4.7,4.92c9.85,0,21.19-23.75,38.52-68.48,2.14-.64,8.14-1.28,14.34-1.28,4.28,0,9.2.42,9.2,4.7,0,3.64-25.25,43.87-25.25,60.35,0,2.14,2.14,3.86,4.28,3.86,6.42,0,16.91-7.71,19.69-9.21,2.14.43,3.42,3.21,3.42,5.78a7.39,7.39,0,0,1-1.28,4.49c-.64.86-16.26,19.27-32.74,19.27C392.49,151.52,386.49,140,385.85,131.4Z"/><path d="M430.57,120.91c0-35.09,22.9-60.77,42.8-60.77,15,0,23.76,9.84,23.76,19.9,0,7.06-5.78,17.76-9,22.47a32.25,32.25,0,0,1-6.42.43c-6.21,0-11.13-1.72-11.13-5.57,0-4.71,6.85-14.55,6.85-19,0-2.36-.86-3.43-2.57-3.43-14.76,0-20.76,32.74-20.76,47.51,0,9.63,2.14,14.13,8.56,14.13,18.41,0,34.67-13.06,37.45-14.56,2.14.43,3.43,3.21,3.43,5.78a8.48,8.48,0,0,1-1.29,4.49c-2.14,2.36-17.54,21-38.3,21C455.18,153.23,430.57,141.46,430.57,120.91Z"/><path d="M542.07,134.82c-2.79,3.64-16.27,19.26-23.54,19.26-7.92,0-19.48-7.06-19.48-29.53,0-30.39,25.47-63.77,47.3-63.77,7.92,0,13.69,5.78,15.83,13.69l4.07-10.91c1.28-.43,1.93-.64,18.83-.64,1.93,0,3.21,1.71,3.21,4.06,0,2.79-23.11,47.08-23.11,59.07,0,3.64,2.57,4.92,5.56,4.92,8.35,0,17.34-7.49,20.12-9,2.14.43,3.42,3.21,3.42,5.78a8.35,8.35,0,0,1-1.28,4.49c-1.5,2.57-18.4,20.34-32.1,20.34C553.2,152.59,545.49,145.31,542.07,134.82Zm-16.27.64c14.77,0,30.18-39.37,30.18-51.78,0-2.79-1.5-6.21-5.57-6.21-10.27,0-29.31,28.46-29.31,49.43C521.1,132.47,522.81,135.46,525.8,135.46Z"/><path d="M664.69,127.76a8.75,8.75,0,0,1-1.5,4.71c-.64.85-17.34,20.12-43.23,20.12-22.9,0-33.17-21-33.17-32.11,0-11.34,7.06-16.26,12.41-16.69C629,58.42,637.29,44.08,644.14,44.08c4.28,0,7.28,2.57,7.28,6.21,0,5.35-8.56,8.78-8.56,21.83,0,9,6.63,23.11,6.63,38.95a45.36,45.36,0,0,1-5.35,22.25c4.07-2.13,14.34-10.48,17.12-12C663.4,121.77,664.69,125.19,664.69,127.76ZM611,110.21c1.5.64,3.43,4.07,3.43,8.13,0,5.14-4.93,9.42-7.49,10.28A12.91,12.91,0,0,0,614.4,132c11.77,0,16.69-14.55,16.69-25.25s-.86-22-1.29-25.9A297.11,297.11,0,0,1,611,110.21Z"/><path d="M858.14,119.84a17,17,0,0,0,3.85-.43c1.29,0,1.72,3.21,1.72,4.28,0,4.5-2.57,9.85-4.5,11.13a8.63,8.63,0,0,1-4.71,1.07c-8.34,0-22.47-4.92-30-21-27,29.11-29.53,36.81-39.37,36.81-7.71,0-17.34-21.4-16.7-43.23C758.84,126.26,737,153.23,728,153.23c-9.63,0-16.27-16.69-16.27-27.61,0-26.11,37.88-89,37.88-98.66a5.44,5.44,0,0,0-5.56-5.77c-6.64,0-16.91,12-24.4,32.1-5.78-.86-12.84-7.06-12.84-12.2C706.84,30,726.1.43,751.14.43c16.69,0,28.25,11.34,28.25,20.54,0,6.42-19.9,43.87-31.89,72.55-7.7,18.4-9.2,31-6.2,31,7.27,0,37.23-48.15,61.84-119.41,3.21-1.29,12-1.93,17.55-1.93,6.21,0,7.71,1.93,7.71,4.92,0,2.36-35.74,63.13-35.74,100.8a41.6,41.6,0,0,0,2.14,14.12,138.07,138.07,0,0,0,25.46-22.25A65.78,65.78,0,0,1,819,88c0-30,19.26-83.89,52.22-83.89,8.13,0,14.76,7.7,14.76,16.69,0,21.61-21.4,52.22-49.86,82.39C840,117.06,847.66,119.84,858.14,119.84Zm8.35-90.52c0-2.57-1.71-4.71-3.64-4.71-6,0-31,27-28.89,61.85C854.93,60.78,866.49,38.52,866.49,29.32Z"/><path d="M901.58,134.82c-2.78,3.64-16.27,19.26-23.54,19.26-7.92,0-19.48-7.06-19.48-29.53,0-30.39,25.47-63.77,47.3-63.77,7.92,0,13.69,5.78,15.84,13.69l4.06-10.91c1.29-.43,1.93-.64,18.83-.64,1.93,0,3.21,1.71,3.21,4.06,0,2.79-23.11,47.08-23.11,59.07,0,3.64,2.57,4.92,5.57,4.92,8.34,0,17.33-7.49,20.11-9,2.14.43,3.43,3.21,3.43,5.78a8.36,8.36,0,0,1-1.29,4.49c-1.5,2.57-18.4,20.34-32.1,20.34C912.71,152.59,905,145.31,901.58,134.82Zm-16.27.64c14.77,0,30.18-39.37,30.18-51.78,0-2.79-1.5-6.21-5.56-6.21-10.28,0-29.32,28.46-29.32,49.43C880.61,132.47,882.32,135.46,885.31,135.46Z"/><path d="M970.7,133.32c0-8.13,13.48-32.52,24.39-47.5-3.85.85-14.33,1.28-17.12,1.28-7.49,23.11-20.75,40.66-26.53,46.44-3.21,3-9-3.64-9-5.78,0-2.78,12-9.42,23.75-45.58a18.91,18.91,0,0,1-2.35-9.85c0-15.83,13.7-24.82,20.12-24.82,5.13,0,7.7,2.35,7.7,6.85,0,3.85-1.93,4.06-1.93,7.7,0,4.07,3.86,7.06,8.56,7.06,6.64,0,10.06-1.71,13.91-8.56h6c3.64,0,8.34,3,8.34,7.71,0,7.7-30.17,40.66-30.17,57.56,0,2.79.85,5.14,3,5.14,4.5,0,22-7.49,24.83-9,2.14.43,3.42,3.21,3.42,5.78a7,7,0,0,1-1.28,4.49c-.64,1.29-21.19,19.48-37.67,19.48C978.19,151.73,970.7,140.6,970.7,133.32Z"/><path d="M1019.92,131c0-17.33,16.69-48.36,31.88-85.81,6.21-15.2,13.49-33.82,17.77-42.59C1072.13,1.5,1082,0,1088,0c4.71,0,6.85,1.07,6.85,3.64,0,3.42-50.93,99.72-50.93,120.91,0,4.49,1.49,6.85,4.92,6.85,8.34,0,17.55-7.92,20.11-9.42,2.36.43,3.43,3.21,3.43,5.78a8.36,8.36,0,0,1-1.29,4.49c-.42,1.07-18,19.48-31.46,19.69C1031.26,151.94,1019.92,147,1019.92,131Z"/><path d="M1151.31,119.41c1.29,0,1.71,3.64,1.71,4.28,0,4.71-2.56,8.78-5.13,10.28a6.68,6.68,0,0,1-3.64,1.07c-5.56,0-12.84-.86-15.62-4.07-7.71,10.49-15.2,22-31.89,22-19.9,0-31.24-17.55-31.24-32.31,0-24.18,19.26-61.63,47.72-61.63,14.55,0,28.25,11.55,28.25,26.1,0,9.21-1.71,22.47-6.85,30.61,2.57,2.78,9.42,4.06,14.34,4.06A6.44,6.44,0,0,0,1151.31,119.41Zm-64.2,1.07c0,9,1.28,14.77,8.56,14.77,7.49,0,18-10.49,20.12-19-3-3.85-6-9-6-15.62s3.42-15.19,10.27-15.19a11.58,11.58,0,0,1,3.85.64c0-4.92-3.85-9.63-10.7-9.63C1100.59,76.4,1087.11,100.8,1087.11,120.48Z"/><path d="M1180,61.63c3.21,0,4.06,2.57,4.06,5.14v7.28c4.71-6.21,12-13.06,20.55-13.06,8.34,0,15.62,8.35,15.62,22.26,0,25.68-14.34,68.48-39.81,68.48-10.05,0-16.47-8.35-17.76-10.92-4.49,18-15.41,54.15-16.9,62.28-8.56,0-20.12-2.35-20.12-8.35,0-7.7,34.67-114.27,39.16-131.82A98.93,98.93,0,0,1,1180,61.63Zm-12.63,63.13c0,4.71,1.07,9.42,9.84,9.42,10.28,0,23.33-34.67,23.33-47.08,0-3.85-1.28-7.06-6-7.06C1183.84,80,1167.36,112.14,1167.36,124.76Z"/><path d="M79.05,265.76H114c34.2,0,52.2,19.65,52.2,49.05s-18,49-52.2,49H79.05Zm34.94,84c25,0,36.75-13.79,36.75-34.94S139,279.86,114,279.86H94.34v69.89Z"/><path d="M175.64,326.81c0-22.5,16.5-39,39.9-39s39.6,16.5,39.6,39v5.25h-64.5c2.1,13.19,12,20.54,24.9,20.54,9.6,0,16.35-3,20.7-9.44H252c-5.7,13.79-19.2,22.64-36.45,22.64C192.14,365.8,175.64,349.3,175.64,326.81Zm64.5-7.5c-2.85-11.85-12.6-18.3-24.6-18.3-12.3,0-21.6,6.6-24.45,18.3Zm-18.3-63.45h15L218.39,279h-12.3Z"/><path d="M262.34,289.76h15.6l24.15,61.35,24.15-61.35h15.15l-30.9,74.09H293.24Z"/><path d="M345.14,326.81c0-22.5,16.5-39,39.9-39s39.6,16.5,39.6,39v5.25h-64.5c2.1,13.19,12,20.54,24.9,20.54,9.6,0,16.35-3,20.7-9.44h15.75C415.79,357,402.29,365.8,385,365.8,361.64,365.8,345.14,349.3,345.14,326.81Zm64.5-7.5C406.79,307.46,397,301,385,301c-12.3,0-21.6,6.6-24.45,18.3Z"/><path d="M439,257.36h14.25V363.85H439Z"/><path d="M467.69,326.81c0-22.5,16.5-39,39.9-39s39.9,16.5,39.9,39-16.5,39-39.9,39S467.69,349.3,467.69,326.81Zm65.4,0c0-15-10.2-25.8-25.5-25.8s-25.5,10.8-25.5,25.8,10.2,25.79,25.5,25.79S533.09,341.81,533.09,326.81Z"/><path d="M559.19,327.41c0-24.15,16.5-39.6,39.45-39.6,23.55,0,40.05,16.2,40.05,39.45,0,24.6-18.3,38.54-37.65,38.54-12,0-22.2-5.4-27.6-15v44.7H559.19Zm65.1-.6c0-15-10.2-25.8-25.5-25.8-15.15,0-25.35,10.8-25.35,25.8s10.2,25.79,25.35,25.79C614.09,352.6,624.29,341.81,624.29,326.81Z"/><path d="M650.39,327.41c0-24.15,16.5-39.6,39.45-39.6,23.54,0,40,16.2,40,39.45,0,24.6-18.29,38.54-37.64,38.54-12,0-22.2-5.4-27.6-15v44.7H650.39Zm65.1-.6c0-15-10.2-25.8-25.5-25.8s-25.35,10.8-25.35,25.8S674.84,352.6,690,352.6,715.49,341.81,715.49,326.81Z"/><path d="M738.59,326.81c0-22.5,16.5-39,39.89-39s39.6,16.5,39.6,39v5.25H753.59c2.09,13.19,12,20.54,24.89,20.54,9.6,0,16.35-3,20.7-9.44h15.75c-5.7,13.79-19.2,22.64-36.45,22.64C755.09,365.8,738.59,349.3,738.59,326.81Zm64.49-7.5c-2.85-11.85-12.6-18.3-24.6-18.3-12.3,0-21.6,6.6-24.45,18.3Z"/><path d="M829.79,328.46v-38.7H844v38.7c0,16,8.85,24.14,22.35,24.14s22.35-8.1,22.35-24.14v-38.7H903v38.7c0,24.59-14.7,37.34-36.6,37.34S829.79,353.2,829.79,328.46Z"/><path d="M917.68,320.21c0-21.9,12.9-32.4,32-32.4s31.8,10.5,31.8,32.55v.75h-14.1v-.9c0-13.65-7.2-19.2-17.7-19.2s-17.7,5.55-17.7,19.2v43.64H917.68Z"/><path d="M1031.53,329.81V265.76h15.3v64.05c0,15,8.4,21.89,19.5,21.89,11.25,0,19.5-7.2,19.5-21.89V265.76h15.3v64.05c0,14.69,8.25,21.89,19.5,21.89,11.1,0,19.5-6.89,19.5-21.89V265.76h15.3v64.05c0,24.29-14.7,36-33.6,36-12.9,0-22.95-5.7-28.35-16.35-5.4,10.65-15.45,16.35-28.35,16.35C1046.23,365.8,1031.53,354.1,1031.53,329.81Z"/><path d="M1167.58,326.81c0-22.5,16.5-39,39.9-39s39.6,16.5,39.6,39v5.25h-64.5c2.1,13.19,12,20.54,24.9,20.54,9.6,0,16.35-3,20.7-9.44h15.75c-5.7,13.79-19.2,22.64-36.45,22.64C1184.08,365.8,1167.58,349.3,1167.58,326.81Zm64.5-7.5c-2.85-11.85-12.6-18.3-24.6-18.3-12.3,0-21.6,6.6-24.45,18.3Z"/><path d="M1258.78,326.21V257.36H1273v45.45c5.4-9.6,15.6-15,27.6-15,19.35,0,37.65,13.95,37.65,38.55,0,23.25-16.5,39.44-40,39.44C1275.28,365.8,1258.78,350.36,1258.78,326.21Zm65.1.6c0-15-10.2-25.8-25.5-25.8s-25.35,10.8-25.35,25.8,10.2,25.79,25.35,25.79S1323.88,341.81,1323.88,326.81Z"/><line class="cls-1" y1="220.68" x2="1417.32" y2="220.68"/></g></g></svg>